<svg width="24" height="24" viewBox="0 0 24 24" fill="none" xmlns="http://www.w3.org/2000/svg">
<path d="M12 18.2835L5.85937 21.3889C5.71666 21.4618 5.55793 21.4964 5.39826 21.4897C5.23859 21.4829 5.08328 21.4349 4.94708 21.3502C4.81088 21.2655 4.69831 21.147 4.62006 21.0058C4.54181 20.8647 4.50048 20.7056 4.5 20.5437V4.39934C4.5 3.3547 5.34375 2.5 6.375 2.5H17.625C18.1223 2.5 18.5992 2.70011 18.9508 3.0563C19.3024 3.4125 19.5 3.8956 19.5 4.39934V20.5437C19.5011 20.7064 19.4609 20.8666 19.3834 21.0091C19.3058 21.1515 19.1934 21.2714 19.0569 21.3572C18.9204 21.443 18.7645 21.4919 18.6041 21.4991C18.4436 21.5063 18.284 21.4716 18.1406 21.3984L12 18.274V18.2835ZM17.625 4.39934H6.375V19.0052L11.5781 16.3747C11.709 16.3079 11.8535 16.2731 12 16.2731C12.1465 16.2731 12.291 16.3079 12.4219 16.3747L17.625 19.0052V4.39934Z" fill="#1D2228"/>
</svg>
