<svg width="24" height="24" viewBox="0 0 24 24" fill="none" xmlns="http://www.w3.org/2000/svg">
<path d="M8.02235 2.5C7.4713 2.5 7.02407 2.948 7.02407 3.5C4.81688 3.5 3 5.293 3 7.5V9.5L3.03095 17.5C3.03095 19.706 4.81887 21.5 7.02407 21.5H17.0069C19.2121 21.5 21 19.709 21 17.5L20.969 9.5V7.5C20.969 5.289 19.2101 3.5 17.0069 3.5C17.0069 2.948 16.5606 2.5 16.0086 2.5C15.4575 2.5 15.0103 2.948 15.0103 3.5H9.02064C9.02064 2.948 8.5744 2.5 8.02235 2.5ZM7.02407 5.5C7.02407 6.052 7.4713 6.5 8.02235 6.5C8.5744 6.5 9.02064 6.052 9.02064 5.5H15.0103C15.0103 6.052 15.4575 6.5 16.0086 6.5C16.5606 6.5 17.0069 6.052 17.0069 5.5C18.102 5.5 18.9725 6.388 18.9725 7.5V8.5C17.0518 8.5 6.91725 8.5 4.99656 8.5V7.5C4.99656 6.403 5.91399 5.5 7.02407 5.5ZM4.99656 10.5C6.91725 10.5 17.0518 10.5 18.9725 10.5L19.0034 17.5C19.0034 18.601 18.11 19.5 17.0069 19.5H7.02407C5.92197 19.5 5.02751 18.605 5.02751 17.5L4.99656 10.5Z" fill="#1D2228"/>
</svg>
