<svg width="24" height="24" viewBox="0 0 24 24" fill="none" xmlns="http://www.w3.org/2000/svg">
<path d="M12 3C7.02863 3 3 7.02975 3 12C3 16.9703 7.02863 21 12 21C16.9714 21 21 16.9703 21 12C21 7.02975 16.9714 3 12 3ZM16.1704 14.5796C16.6102 15.0195 16.6102 15.7305 16.1704 16.1704C15.951 16.3897 15.663 16.5 15.375 16.5C15.087 16.5 14.799 16.3897 14.5796 16.1704L12 13.5907L9.42037 16.1704C9.201 16.3897 8.913 16.5 8.625 16.5C8.337 16.5 8.049 16.3897 7.82963 16.1704C7.38975 15.7305 7.38975 15.0195 7.82963 14.5796L10.4093 12L7.82963 9.42037C7.38975 8.9805 7.38975 8.2695 7.82963 7.82963C8.2695 7.38975 8.9805 7.38975 9.42037 7.82963L12 10.4093L14.5796 7.82963C15.0195 7.38975 15.7305 7.38975 16.1704 7.82963C16.6102 8.2695 16.6102 8.9805 16.1704 9.42037L13.5907 12L16.1704 14.5796Z" fill="#1D2228"/>
</svg>
