<svg width="24" height="24" viewBox="0 0 24 24" fill="none" xmlns="http://www.w3.org/2000/svg">
<path d="M12.7636 4.92345L14.1273 6.28709C14.2118 6.37229 14.3123 6.43992 14.4231 6.48608C14.5339 6.53223 14.6527 6.55599 14.7727 6.55599C14.8927 6.55599 15.0116 6.53223 15.1223 6.48608C15.2331 6.43992 15.3337 6.37229 15.4182 6.28709C15.5561 6.14227 15.6425 5.956 15.6639 5.75713C15.6852 5.55827 15.6404 5.3579 15.5364 5.18709H18.8636C19.1047 5.18709 19.336 5.09131 19.5064 4.92082C19.6769 4.75033 19.7727 4.5191 19.7727 4.278C19.7727 4.03689 19.6769 3.80566 19.5064 3.63517C19.336 3.46469 19.1047 3.36891 18.8636 3.36891H15.5364C15.6404 3.19809 15.6852 2.99773 15.6639 2.79886C15.6425 2.59999 15.5561 2.41372 15.4182 2.26891C15.3337 2.1837 15.2331 2.11607 15.1223 2.06992C15.0116 2.02376 14.8927 2 14.7727 2C14.6527 2 14.5339 2.02376 14.4231 2.06992C14.3123 2.11607 14.2118 2.1837 14.1273 2.26891L12.7636 3.63254C12.6809 3.719 12.616 3.82095 12.5727 3.93254C12.4818 4.15387 12.4818 4.40212 12.5727 4.62345C12.616 4.73504 12.6809 4.83699 12.7636 4.92345ZM22.4273 8.47799C22.384 8.3664 22.3191 8.26445 22.2363 8.17799L20.8727 6.81436C20.7882 6.72915 20.6877 6.66152 20.5769 6.61537C20.4661 6.56921 20.3473 6.54545 20.2273 6.54545C20.1072 6.54545 19.9884 6.56921 19.8776 6.61537C19.7669 6.66152 19.6663 6.72915 19.5818 6.81436C19.4438 6.95917 19.3575 7.14544 19.3361 7.34431C19.3148 7.54318 19.3596 7.74354 19.4636 7.91436H16.1364C15.8952 7.91436 15.664 8.01014 15.4935 8.18062C15.323 8.35111 15.2273 8.58234 15.2273 8.82345C15.2273 9.06455 15.323 9.29578 15.4935 9.46627C15.664 9.63676 15.8952 9.73254 16.1364 9.73254H19.4636C19.3596 9.90335 19.3148 10.1037 19.3361 10.3026C19.3575 10.5014 19.4438 10.6877 19.5818 10.8325C19.6663 10.9177 19.7669 10.9854 19.8776 11.0315C19.9884 11.0777 20.1072 11.1014 20.2273 11.1014C20.3473 11.1014 20.4661 11.0777 20.5769 11.0315C20.6877 10.9854 20.7882 10.9177 20.8727 10.8325L22.2363 9.4689C22.3191 9.38244 22.384 9.28049 22.4273 9.1689C22.5182 8.94757 22.5182 8.69932 22.4273 8.47799ZM11.5909 9.27799C10.8717 9.27799 10.1686 9.49126 9.57065 9.89083C8.97265 10.2904 8.50657 10.8583 8.23134 11.5228C7.95611 12.1872 7.8841 12.9184 8.02441 13.6238C8.16472 14.3292 8.51105 14.9771 9.01961 15.4856C9.52816 15.9942 10.1761 16.3405 10.8815 16.4808C11.5869 16.6211 12.318 16.5491 12.9825 16.2739C13.6469 15.9987 14.2149 15.5326 14.6144 14.9346C15.014 14.3366 15.2273 13.6336 15.2273 12.9144C15.2273 11.9499 14.8441 11.025 14.1622 10.3431C13.4802 9.66111 12.5553 9.27799 11.5909 9.27799ZM11.5909 14.7325C11.2313 14.7325 10.8798 14.6259 10.5808 14.4261C10.2818 14.2263 10.0487 13.9424 9.91112 13.6101C9.77351 13.2779 9.7375 12.9123 9.80766 12.5596C9.87781 12.2069 10.051 11.883 10.3053 11.6287C10.5595 11.3744 10.8835 11.2013 11.2362 11.1311C11.5889 11.061 11.9545 11.097 12.2867 11.2346C12.6189 11.3722 12.9029 11.6052 13.1027 11.9042C13.3024 12.2032 13.4091 12.5547 13.4091 12.9144C13.4091 13.3966 13.2175 13.859 12.8765 14.2C12.5356 14.541 12.0731 14.7325 11.5909 14.7325ZM19.7727 12.0053C19.5316 12.0053 19.3004 12.101 19.1299 12.2715C18.9594 12.442 18.8636 12.6732 18.8636 12.9144V17.4598C18.8636 17.7009 18.7678 17.9321 18.5974 18.1026C18.4269 18.2731 18.1956 18.3689 17.9545 18.3689H5.22727C4.98616 18.3689 4.75493 18.2731 4.58445 18.1026C4.41396 17.9321 4.31818 17.7009 4.31818 17.4598V10.1871C4.31818 9.94598 4.41396 9.71475 4.58445 9.54426C4.75493 9.37377 4.98616 9.27799 5.22727 9.27799H7.04545C7.24483 9.28775 7.44188 9.23161 7.60618 9.11824C7.77048 9.00487 7.8929 8.84058 7.95454 8.65072L8.44545 7.17799C8.50228 7.00289 8.61093 6.84917 8.75702 6.73716C8.90312 6.62515 9.07978 6.56014 9.26363 6.55072H10.6818C10.9229 6.55072 11.1541 6.45494 11.3246 6.28445C11.4951 6.11397 11.5909 5.88274 11.5909 5.64163C11.5909 5.40053 11.4951 5.1693 11.3246 4.99881C11.1541 4.82832 10.9229 4.73254 10.6818 4.73254H9.26363C8.68964 4.73234 8.13021 4.91324 7.66502 5.24948C7.19982 5.58573 6.85257 6.06018 6.67272 6.60527L6.39091 7.45981H5.22727C4.50395 7.45981 3.81026 7.74715 3.2988 8.25861C2.78734 8.77007 2.5 9.46376 2.5 10.1871V17.4598C2.5 18.1831 2.78734 18.8768 3.2988 19.3883C3.81026 19.8997 4.50395 20.1871 5.22727 20.1871H17.9545C18.6778 20.1871 19.3715 19.8997 19.883 19.3883C20.3945 18.8768 20.6818 18.1831 20.6818 17.4598V12.9144C20.6818 12.6732 20.586 12.442 20.4155 12.2715C20.245 12.101 20.0138 12.0053 19.7727 12.0053Z" fill="#1D2228"/>
</svg>
