<svg width="24" height="24" viewBox="0 0 24 24" fill="none" xmlns="http://www.w3.org/2000/svg">
<path d="M12 2C6.47656 2 2 6.47656 2 12C2 17.5234 6.47656 22 12 22C17.5234 22 22 17.5234 22 12C22 6.47656 17.5234 2 12 2ZM12 7C13.5535 7 14.8125 8.25938 14.8125 9.8125C14.8125 11.3656 13.5547 12.625 12 12.625C10.4469 12.625 9.1875 11.3656 9.1875 9.8125C9.1875 8.25938 10.4453 7 12 7ZM12 19.5C9.93242 19.5 8.05859 18.659 6.69922 17.3012C7.33203 15.668 8.89453 14.5 10.75 14.5H13.25C15.107 14.5 16.6695 15.6672 17.3008 17.3012C15.9414 18.6602 14.0664 19.5 12 19.5Z" fill="#1D2228"/>
</svg>
